# xmcd CD database file
#
# Track frame offsets:
#	150
#	22218
#	44305
#	57800
#
# Disc length: 947 seconds
#
# Revision: 0
# Processed by: cddbd v1.5.1PL0 Copyright (c) Steve Scherf et al.
# Submitted via: CDex 1.51
#
DISCID=2f03b104
DTITLE=HI-ME - 金太の大冒険
DYEAR=1993
DGENRE=J-POP
TTITLE0=金太の大冒険
TTITLE1=金太の大冒険(カラオケ)
TTITLE2=丸の内ストーリーPart?
TTITLE3=丸の内ストーリーPart?(カラオケ)
EXTD=YEAR: 1993
EXTT0=
EXTT1=
EXTT2=
EXTT3=
PLAYORDER=
